<!DOCTYPE svg PUBLIC "-//W3C//DTD SVG 1.1//EN" "http://www.w3.org/Graphics/SVG/1.1/DTD/svg11.dtd">
<!-- Uploaded to: SVG Repo, www.svgrepo.com, Transformed by: SVG Repo Mixer Tools -->
<svg width="800px" height="800px" viewBox="-2 0 24 24" id="meteor-icon-kit__solid-home-simple" fill="none" xmlns="http://www.w3.org/2000/svg" stroke="#F1F5F9">
<g id="SVGRepo_bgCarrier" stroke-width="0"/>
<g id="SVGRepo_tracerCarrier" stroke-linecap="round" stroke-linejoin="round" stroke="#CCCCCC" stroke-width="0.048"/>
<g id="SVGRepo_iconCarrier">
<path fill-rule="evenodd" clip-rule="evenodd" d="M20 23V12.0861C20 11.3843 19.754 10.7047 19.3047 10.1656L11.5364 0.843705C10.8293 -0.00484902 9.5682 -0.119497 8.7196 0.587631C8.6267 0.665069 8.541 0.750779 8.4636 0.843705L0.69534 10.1656C0.24605 10.7047 0 11.3843 0 12.0861V23C0 23.5523 0.44772 24 1 24H6C6.55228 24 7 23.5523 7 23V18C7 16.8954 7.89543 16 9 16H11C12.1046 16 13 16.8954 13 18V23C13 23.5523 13.4477 24 14 24H19C19.5523 24 20 23.5523 20 23z" fill="#758CA3"/>
</g>
</svg>